<mxfile host="app.diagrams.net" modified="2021-04-24T08:37:06.441Z" agent="5.0 (Windows NT 10.0; Win64; x64) AppleWebKit/537.36 (KHTML, like Gecko) Chrome/90.0.4430.85 Safari/537.36" etag="Mp7O0clRy__H52GfCArw" version="14.6.6" type="github">
  <diagram id="COMjNyVUd5fdEqpG4wd7" name="Page-1">
    <mxGraphModel dx="1034" dy="1116" grid="1" gridSize="10" guides="1" tooltips="1" connect="1" arrows="1" fold="1" page="1" pageScale="1" pageWidth="1100" pageHeight="850" math="0" shadow="0">
      <root>
        <mxCell id="0" />
        <mxCell id="1" parent="0" />
        <mxCell id="jwZGUhkXCygK-l2zZaAF-39" style="edgeStyle=orthogonalEdgeStyle;rounded=0;orthogonalLoop=1;jettySize=auto;html=1;entryX=1;entryY=0.5;entryDx=0;entryDy=0;" edge="1" parent="1" source="Dtp3rhjISmE1_UI2CVRm-2" target="Dtp3rhjISmE1_UI2CVRm-31">
          <mxGeometry relative="1" as="geometry">
            <mxPoint x="640" y="215" as="targetPoint" />
          </mxGeometry>
        </mxCell>
        <mxCell id="Dtp3rhjISmE1_UI2CVRm-2" value="진료 시스템" style="shape=umlActor;verticalLabelPosition=bottom;verticalAlign=top;html=1;outlineConnect=0;" parent="1" vertex="1">
          <mxGeometry x="829" y="195" width="30" height="60" as="geometry" />
        </mxCell>
        <mxCell id="OPc9nDSy-Yzxt8gLuNaa-9" style="edgeStyle=orthogonalEdgeStyle;rounded=0;orthogonalLoop=1;jettySize=auto;html=1;entryX=0;entryY=0.5;entryDx=0;entryDy=0;" parent="1" source="Dtp3rhjISmE1_UI2CVRm-3" target="SsTOA8I2RhOl6AxfoDHe-11" edge="1">
          <mxGeometry relative="1" as="geometry" />
        </mxCell>
        <mxCell id="Dtp3rhjISmE1_UI2CVRm-3" value="환자" style="shape=umlActor;verticalLabelPosition=bottom;verticalAlign=top;html=1;outlineConnect=0;" parent="1" vertex="1">
          <mxGeometry x="30" y="375" width="30" height="60" as="geometry" />
        </mxCell>
        <mxCell id="jwZGUhkXCygK-l2zZaAF-44" style="edgeStyle=orthogonalEdgeStyle;rounded=0;orthogonalLoop=1;jettySize=auto;html=1;entryX=0.5;entryY=0;entryDx=0;entryDy=0;" edge="1" parent="1" source="Dtp3rhjISmE1_UI2CVRm-14" target="jwZGUhkXCygK-l2zZaAF-43">
          <mxGeometry relative="1" as="geometry" />
        </mxCell>
        <mxCell id="Dtp3rhjISmE1_UI2CVRm-14" value="&lt;&lt; entity &gt;&gt;&#xa;피드백 목록" style="swimlane;startSize=70;" parent="1" vertex="1">
          <mxGeometry x="210" y="170" width="180" height="110" as="geometry" />
        </mxCell>
        <mxCell id="Dtp3rhjISmE1_UI2CVRm-15" value="피드백&amp;nbsp; 목록" style="text;html=1;align=center;verticalAlign=middle;resizable=0;points=[];autosize=1;strokeColor=none;" parent="Dtp3rhjISmE1_UI2CVRm-14" vertex="1">
          <mxGeometry x="50" y="80" width="80" height="20" as="geometry" />
        </mxCell>
        <mxCell id="jwZGUhkXCygK-l2zZaAF-40" style="edgeStyle=orthogonalEdgeStyle;rounded=0;orthogonalLoop=1;jettySize=auto;html=1;entryX=1;entryY=0.5;entryDx=0;entryDy=0;" edge="1" parent="1" source="Dtp3rhjISmE1_UI2CVRm-31" target="Dtp3rhjISmE1_UI2CVRm-14">
          <mxGeometry relative="1" as="geometry" />
        </mxCell>
        <mxCell id="Dtp3rhjISmE1_UI2CVRm-31" value="&lt;&lt; boundary &gt;&gt;&#xa;피드백 조회" style="swimlane;startSize=50;" parent="1" vertex="1">
          <mxGeometry x="431" y="170" width="179" height="110" as="geometry" />
        </mxCell>
        <mxCell id="SsTOA8I2RhOl6AxfoDHe-5" value="서비스와 의사에 대한 피드백" style="text;html=1;align=center;verticalAlign=middle;resizable=0;points=[];autosize=1;strokeColor=none;" parent="Dtp3rhjISmE1_UI2CVRm-31" vertex="1">
          <mxGeometry x="7.5" y="65" width="170" height="20" as="geometry" />
        </mxCell>
        <mxCell id="jwZGUhkXCygK-l2zZaAF-51" style="edgeStyle=orthogonalEdgeStyle;rounded=0;orthogonalLoop=1;jettySize=auto;html=1;entryX=0.5;entryY=0;entryDx=0;entryDy=0;exitX=0.5;exitY=0;exitDx=0;exitDy=0;" edge="1" parent="1" source="SsTOA8I2RhOl6AxfoDHe-11" target="jwZGUhkXCygK-l2zZaAF-48">
          <mxGeometry relative="1" as="geometry" />
        </mxCell>
        <mxCell id="SsTOA8I2RhOl6AxfoDHe-11" value="&lt;&lt; boundary &gt;&gt;&#xa;access write" style="swimlane;startSize=70;" parent="1" vertex="1">
          <mxGeometry x="100" y="350" width="180" height="110" as="geometry" />
        </mxCell>
        <mxCell id="SsTOA8I2RhOl6AxfoDHe-12" value="patientID" style="text;html=1;align=center;verticalAlign=middle;resizable=0;points=[];autosize=1;strokeColor=none;" parent="SsTOA8I2RhOl6AxfoDHe-11" vertex="1">
          <mxGeometry x="60" y="80" width="60" height="20" as="geometry" />
        </mxCell>
        <mxCell id="jwZGUhkXCygK-l2zZaAF-38" style="edgeStyle=orthogonalEdgeStyle;rounded=0;orthogonalLoop=1;jettySize=auto;html=1;" edge="1" parent="1" source="SsTOA8I2RhOl6AxfoDHe-17">
          <mxGeometry relative="1" as="geometry">
            <mxPoint x="844" y="280" as="targetPoint" />
          </mxGeometry>
        </mxCell>
        <mxCell id="SsTOA8I2RhOl6AxfoDHe-17" value="&lt;&lt; boundary &gt;&gt;&#xa;store feedback" style="swimlane;startSize=70;" parent="1" vertex="1">
          <mxGeometry x="754" y="330" width="180" height="110" as="geometry" />
        </mxCell>
        <mxCell id="jwZGUhkXCygK-l2zZaAF-37" style="edgeStyle=orthogonalEdgeStyle;rounded=0;orthogonalLoop=1;jettySize=auto;html=1;" edge="1" parent="1" source="OPc9nDSy-Yzxt8gLuNaa-1" target="SsTOA8I2RhOl6AxfoDHe-17">
          <mxGeometry relative="1" as="geometry" />
        </mxCell>
        <mxCell id="OPc9nDSy-Yzxt8gLuNaa-1" value="&lt;&lt; control &gt;&gt;&#xa;Controller" style="swimlane;startSize=70;" parent="1" vertex="1">
          <mxGeometry x="514" y="330" width="180" height="110" as="geometry" />
        </mxCell>
        <mxCell id="OPc9nDSy-Yzxt8gLuNaa-2" value="save feedback&lt;br&gt;access feedback" style="text;html=1;align=center;verticalAlign=middle;resizable=0;points=[];autosize=1;strokeColor=none;" parent="OPc9nDSy-Yzxt8gLuNaa-1" vertex="1">
          <mxGeometry x="35" y="75" width="110" height="30" as="geometry" />
        </mxCell>
        <mxCell id="jwZGUhkXCygK-l2zZaAF-6" style="edgeStyle=orthogonalEdgeStyle;rounded=0;orthogonalLoop=1;jettySize=auto;html=1;entryX=0.518;entryY=1.111;entryDx=0;entryDy=0;entryPerimeter=0;exitX=1;exitY=0.5;exitDx=0;exitDy=0;" edge="1" parent="1" source="jwZGUhkXCygK-l2zZaAF-10" target="OPc9nDSy-Yzxt8gLuNaa-2">
          <mxGeometry relative="1" as="geometry">
            <mxPoint x="570" y="350" as="targetPoint" />
            <mxPoint x="540" y="545" as="sourcePoint" />
          </mxGeometry>
        </mxCell>
        <mxCell id="jwZGUhkXCygK-l2zZaAF-10" value="&lt;span style=&quot;font-weight: 700&quot;&gt;&amp;lt;&amp;lt; entity &amp;gt;&amp;gt;&lt;/span&gt;&lt;br style=&quot;padding: 0px ; margin: 0px ; font-weight: 700&quot;&gt;&lt;span style=&quot;font-weight: 700&quot;&gt;진료 피드백 쓰기&lt;/span&gt;" style="rounded=0;whiteSpace=wrap;html=1;" vertex="1" parent="1">
          <mxGeometry x="347" y="498" width="133" height="92" as="geometry" />
        </mxCell>
        <mxCell id="jwZGUhkXCygK-l2zZaAF-28" value="&lt;&lt; entity &gt;&gt;&#xa;진료 피드백" style="swimlane;fontStyle=1;childLayout=stackLayout;horizontal=1;startSize=26;horizontalStack=0;resizeParent=1;resizeParentMax=0;resizeLast=0;collapsible=1;marginBottom=0;align=center;fontSize=14;" vertex="1" parent="1">
          <mxGeometry x="100" y="500" width="180" height="90" as="geometry" />
        </mxCell>
        <mxCell id="jwZGUhkXCygK-l2zZaAF-29" value="patientID(User ID)" style="text;strokeColor=none;fillColor=none;spacingLeft=4;spacingRight=4;overflow=hidden;rotatable=0;points=[[0,0.5],[1,0.5]];portConstraint=eastwest;fontSize=12;" vertex="1" parent="jwZGUhkXCygK-l2zZaAF-28">
          <mxGeometry y="26" width="180" height="30" as="geometry" />
        </mxCell>
        <mxCell id="jwZGUhkXCygK-l2zZaAF-30" value="Feed Back Info" style="text;strokeColor=none;fillColor=none;spacingLeft=4;spacingRight=4;overflow=hidden;rotatable=0;points=[[0,0.5],[1,0.5]];portConstraint=eastwest;fontSize=12;" vertex="1" parent="jwZGUhkXCygK-l2zZaAF-28">
          <mxGeometry y="56" width="180" height="34" as="geometry" />
        </mxCell>
        <mxCell id="jwZGUhkXCygK-l2zZaAF-34" value="" style="endArrow=none;html=1;entryX=0.5;entryY=1;entryDx=0;entryDy=0;exitX=0.5;exitY=0;exitDx=0;exitDy=0;" edge="1" parent="1" source="jwZGUhkXCygK-l2zZaAF-28" target="SsTOA8I2RhOl6AxfoDHe-11">
          <mxGeometry width="50" height="50" relative="1" as="geometry">
            <mxPoint x="420" y="490" as="sourcePoint" />
            <mxPoint x="470" y="440" as="targetPoint" />
          </mxGeometry>
        </mxCell>
        <mxCell id="jwZGUhkXCygK-l2zZaAF-35" value="" style="endArrow=none;html=1;exitX=1;exitY=0.5;exitDx=0;exitDy=0;entryX=0.001;entryY=0.47;entryDx=0;entryDy=0;entryPerimeter=0;" edge="1" parent="1" source="jwZGUhkXCygK-l2zZaAF-29" target="jwZGUhkXCygK-l2zZaAF-10">
          <mxGeometry width="50" height="50" relative="1" as="geometry">
            <mxPoint x="470" y="470" as="sourcePoint" />
            <mxPoint x="520" y="420" as="targetPoint" />
          </mxGeometry>
        </mxCell>
        <mxCell id="jwZGUhkXCygK-l2zZaAF-45" style="edgeStyle=orthogonalEdgeStyle;rounded=0;orthogonalLoop=1;jettySize=auto;html=1;exitX=0.25;exitY=1;exitDx=0;exitDy=0;" edge="1" parent="1" source="jwZGUhkXCygK-l2zZaAF-43">
          <mxGeometry relative="1" as="geometry">
            <mxPoint x="55" y="370" as="targetPoint" />
            <mxPoint x="79.00000000000011" y="285" as="sourcePoint" />
          </mxGeometry>
        </mxCell>
        <mxCell id="jwZGUhkXCygK-l2zZaAF-43" value="&lt;span style=&quot;font-weight: 700&quot;&gt;&amp;lt;&amp;lt; boundary &amp;gt;&amp;gt;&lt;/span&gt;&lt;br style=&quot;padding: 0px ; margin: 0px ; font-weight: 700&quot;&gt;&lt;span style=&quot;font-weight: 700&quot;&gt;Interface page&lt;/span&gt;" style="whiteSpace=wrap;html=1;align=center;" vertex="1" parent="1">
          <mxGeometry x="30" y="245" width="100" height="40" as="geometry" />
        </mxCell>
        <mxCell id="jwZGUhkXCygK-l2zZaAF-46" value="&lt;font style=&quot;font-size: 8px&quot;&gt;서비스&amp;nbsp;피드백 체크&lt;/font&gt;" style="text;html=1;strokeColor=none;fillColor=none;align=center;verticalAlign=middle;whiteSpace=wrap;rounded=0;" vertex="1" parent="1">
          <mxGeometry x="395" y="435" width="100" height="20" as="geometry" />
        </mxCell>
        <mxCell id="jwZGUhkXCygK-l2zZaAF-47" value="&lt;font style=&quot;font-size: 8px&quot;&gt;진료 피드백 체크&lt;/font&gt;" style="text;html=1;strokeColor=none;fillColor=none;align=center;verticalAlign=middle;whiteSpace=wrap;rounded=0;" vertex="1" parent="1">
          <mxGeometry x="500" y="520" width="100" height="20" as="geometry" />
        </mxCell>
        <mxCell id="jwZGUhkXCygK-l2zZaAF-48" value="&lt;&lt; entity &gt;&gt;&#xa;서비스 피드백" style="swimlane;fontStyle=1;childLayout=stackLayout;horizontal=1;startSize=26;horizontalStack=0;resizeParent=1;resizeParentMax=0;resizeLast=0;collapsible=1;marginBottom=0;align=center;fontSize=14;" vertex="1" parent="1">
          <mxGeometry x="290" y="360" width="180" height="56" as="geometry" />
        </mxCell>
        <mxCell id="jwZGUhkXCygK-l2zZaAF-49" value="patientID(User ID)" style="text;strokeColor=none;fillColor=none;spacingLeft=4;spacingRight=4;overflow=hidden;rotatable=0;points=[[0,0.5],[1,0.5]];portConstraint=eastwest;fontSize=12;" vertex="1" parent="jwZGUhkXCygK-l2zZaAF-48">
          <mxGeometry y="26" width="180" height="30" as="geometry" />
        </mxCell>
        <mxCell id="jwZGUhkXCygK-l2zZaAF-52" style="edgeStyle=orthogonalEdgeStyle;rounded=0;orthogonalLoop=1;jettySize=auto;html=1;exitX=0.489;exitY=1.069;exitDx=0;exitDy=0;exitPerimeter=0;entryX=0.107;entryY=1.12;entryDx=0;entryDy=0;entryPerimeter=0;" edge="1" parent="1" source="jwZGUhkXCygK-l2zZaAF-49" target="OPc9nDSy-Yzxt8gLuNaa-2">
          <mxGeometry relative="1" as="geometry">
            <mxPoint x="520" y="401" as="targetPoint" />
            <Array as="points">
              <mxPoint x="378" y="460" />
              <mxPoint x="561" y="460" />
            </Array>
          </mxGeometry>
        </mxCell>
        <mxCell id="jwZGUhkXCygK-l2zZaAF-53" value="" style="shape=image;html=1;verticalAlign=top;verticalLabelPosition=bottom;labelBackgroundColor=#ffffff;imageAspect=0;aspect=fixed;image=https://cdn3.iconfinder.com/data/icons/social-media-2125/80/smile-128.png" vertex="1" parent="1">
          <mxGeometry x="495" y="300" width="50" height="50" as="geometry" />
        </mxCell>
      </root>
    </mxGraphModel>
  </diagram>
</mxfile>
